<svg xmlns="http://www.w3.org/2000/svg" version="1.1" xmlns:xlink="http://www.w3.org/1999/xlink" xmlns:svgjs="http://svgjs.dev/svgjs" width="3000" height="1000" preserveAspectRatio="none" viewBox="0 0 3000 1000"><g mask="url(&quot;#SvgjsMask1041&quot;)" fill="none"><rect width="3000" height="1000" x="0" y="0" fill="url(&quot;#SvgjsLinearGradient1042&quot;)"></rect><path d="M2397 460L2396 -235" stroke-width="8" stroke="url(&quot;#SvgjsLinearGradient1043&quot;)" stroke-linecap="round" class="Up"></path><path d="M2423 50L2422 -687" stroke-width="10" stroke="url(&quot;#SvgjsLinearGradient1044&quot;)" stroke-linecap="round" class="Down"></path><path d="M2406 519L2405 83" stroke-width="6" stroke="url(&quot;#SvgjsLinearGradient1044&quot;)" stroke-linecap="round" class="Down"></path><path d="M903 24L902 -432" stroke-width="6" stroke="url(&quot;#SvgjsLinearGradient1043&quot;)" stroke-linecap="round" class="Up"></path><path d="M2051 797L2050 483" stroke-width="10" stroke="url(&quot;#SvgjsLinearGradient1043&quot;)" stroke-linecap="round" class="Up"></path><path d="M1476 848L1475 1352" stroke-width="10" stroke="url(&quot;#SvgjsLinearGradient1043&quot;)" stroke-linecap="round" class="Up"></path><path d="M457 942L456 598" stroke-width="8" stroke="url(&quot;#SvgjsLinearGradient1044&quot;)" stroke-linecap="round" class="Down"></path><path d="M674 228L673 569" stroke-width="6" stroke="url(&quot;#SvgjsLinearGradient1043&quot;)" stroke-linecap="round" class="Up"></path><path d="M1526 188L1525 -390" stroke-width="10" stroke="url(&quot;#SvgjsLinearGradient1043&quot;)" stroke-linecap="round" class="Up"></path><path d="M1613 899L1612 441" stroke-width="10" stroke="url(&quot;#SvgjsLinearGradient1043&quot;)" stroke-linecap="round" class="Up"></path><path d="M1690 758L1689 1058" stroke-width="10" stroke="url(&quot;#SvgjsLinearGradient1043&quot;)" stroke-linecap="round" class="Up"></path><path d="M1331 617L1330 196" stroke-width="10" stroke="url(&quot;#SvgjsLinearGradient1043&quot;)" stroke-linecap="round" class="Up"></path><path d="M466 865L465 1397" stroke-width="8" stroke="url(&quot;#SvgjsLinearGradient1043&quot;)" stroke-linecap="round" class="Up"></path><path d="M47 948L46 204" stroke-width="8" stroke="url(&quot;#SvgjsLinearGradient1044&quot;)" stroke-linecap="round" class="Down"></path><path d="M1126 485L1125 20" stroke-width="8" stroke="url(&quot;#SvgjsLinearGradient1043&quot;)" stroke-linecap="round" class="Up"></path><path d="M755 836L754 1342" stroke-width="8" stroke="url(&quot;#SvgjsLinearGradient1043&quot;)" stroke-linecap="round" class="Up"></path><path d="M2005 967L2004 1513" stroke-width="8" stroke="url(&quot;#SvgjsLinearGradient1043&quot;)" stroke-linecap="round" class="Up"></path><path d="M957 159L956 -155" stroke-width="6" stroke="url(&quot;#SvgjsLinearGradient1044&quot;)" stroke-linecap="round" class="Down"></path><path d="M2267 80L2266 400" stroke-width="8" stroke="url(&quot;#SvgjsLinearGradient1043&quot;)" stroke-linecap="round" class="Up"></path><path d="M307 642L306 1364" stroke-width="6" stroke="url(&quot;#SvgjsLinearGradient1043&quot;)" stroke-linecap="round" class="Up"></path><path d="M679 680L678 297" stroke-width="10" stroke="url(&quot;#SvgjsLinearGradient1044&quot;)" stroke-linecap="round" class="Down"></path><path d="M2544 496L2543 -219" stroke-width="6" stroke="url(&quot;#SvgjsLinearGradient1044&quot;)" stroke-linecap="round" class="Down"></path><path d="M613 660L612 14" stroke-width="6" stroke="url(&quot;#SvgjsLinearGradient1043&quot;)" stroke-linecap="round" class="Up"></path><path d="M1108 259L1107 -426" stroke-width="6" stroke="url(&quot;#SvgjsLinearGradient1044&quot;)" stroke-linecap="round" class="Down"></path><path d="M279 303L278 -4" stroke-width="10" stroke="url(&quot;#SvgjsLinearGradient1043&quot;)" stroke-linecap="round" class="Up"></path><path d="M973 561L972 879" stroke-width="8" stroke="url(&quot;#SvgjsLinearGradient1043&quot;)" stroke-linecap="round" class="Up"></path><path d="M431 237L430 -240" stroke-width="10" stroke="url(&quot;#SvgjsLinearGradient1043&quot;)" stroke-linecap="round" class="Up"></path><path d="M82 467L81 1202" stroke-width="8" stroke="url(&quot;#SvgjsLinearGradient1043&quot;)" stroke-linecap="round" class="Up"></path><path d="M1965 398L1964 -52" stroke-width="6" stroke="url(&quot;#SvgjsLinearGradient1044&quot;)" stroke-linecap="round" class="Down"></path><path d="M2297 697L2296 1401" stroke-width="8" stroke="url(&quot;#SvgjsLinearGradient1043&quot;)" stroke-linecap="round" class="Up"></path><path d="M1276 664L1275 57" stroke-width="6" stroke="url(&quot;#SvgjsLinearGradient1043&quot;)" stroke-linecap="round" class="Up"></path><path d="M278 509L277 84" stroke-width="10" stroke="url(&quot;#SvgjsLinearGradient1043&quot;)" stroke-linecap="round" class="Up"></path><path d="M1032 943L1031 1588" stroke-width="10" stroke="url(&quot;#SvgjsLinearGradient1044&quot;)" stroke-linecap="round" class="Down"></path><path d="M2256 925L2255 1468" stroke-width="8" stroke="url(&quot;#SvgjsLinearGradient1044&quot;)" stroke-linecap="round" class="Down"></path><path d="M1041 897L1040 1457" stroke-width="8" stroke="url(&quot;#SvgjsLinearGradient1043&quot;)" stroke-linecap="round" class="Up"></path><path d="M2295 77L2294 -543" stroke-width="10" stroke="url(&quot;#SvgjsLinearGradient1044&quot;)" stroke-linecap="round" class="Down"></path><path d="M1140 127L1139 -557" stroke-width="8" stroke="url(&quot;#SvgjsLinearGradient1043&quot;)" stroke-linecap="round" class="Up"></path><path d="M2947 355L2946 -22" stroke-width="6" stroke="url(&quot;#SvgjsLinearGradient1044&quot;)" stroke-linecap="round" class="Down"></path><path d="M2264 793L2263 517" stroke-width="6" stroke="url(&quot;#SvgjsLinearGradient1044&quot;)" stroke-linecap="round" class="Down"></path><path d="M971 675L970 154" stroke-width="8" stroke="url(&quot;#SvgjsLinearGradient1043&quot;)" stroke-linecap="round" class="Up"></path><path d="M1573 365L1572 715" stroke-width="6" stroke="url(&quot;#SvgjsLinearGradient1043&quot;)" stroke-linecap="round" class="Up"></path><path d="M1064 818L1063 367" stroke-width="10" stroke="url(&quot;#SvgjsLinearGradient1044&quot;)" stroke-linecap="round" class="Down"></path><path d="M1439 268L1438 -413" stroke-width="8" stroke="url(&quot;#SvgjsLinearGradient1043&quot;)" stroke-linecap="round" class="Up"></path><path d="M844 282L843 785" stroke-width="10" stroke="url(&quot;#SvgjsLinearGradient1043&quot;)" stroke-linecap="round" class="Up"></path><path d="M1695 41L1694 -530" stroke-width="10" stroke="url(&quot;#SvgjsLinearGradient1044&quot;)" stroke-linecap="round" class="Down"></path><path d="M2679 99L2678 -612" stroke-width="6" stroke="url(&quot;#SvgjsLinearGradient1044&quot;)" stroke-linecap="round" class="Down"></path><path d="M1770 152L1769 -504" stroke-width="8" stroke="url(&quot;#SvgjsLinearGradient1044&quot;)" stroke-linecap="round" class="Down"></path><path d="M2404 449L2403 92" stroke-width="6" stroke="url(&quot;#SvgjsLinearGradient1044&quot;)" stroke-linecap="round" class="Down"></path><path d="M1244 756L1243 411" stroke-width="10" stroke="url(&quot;#SvgjsLinearGradient1044&quot;)" stroke-linecap="round" class="Down"></path><path d="M265 392L264 689" stroke-width="10" stroke="url(&quot;#SvgjsLinearGradient1044&quot;)" stroke-linecap="round" class="Down"></path><path d="M2705 913L2704 355" stroke-width="10" stroke="url(&quot;#SvgjsLinearGradient1043&quot;)" stroke-linecap="round" class="Up"></path><path d="M1375 773L1374 1454" stroke-width="10" stroke="url(&quot;#SvgjsLinearGradient1044&quot;)" stroke-linecap="round" class="Down"></path><path d="M98 428L97 697" stroke-width="10" stroke="url(&quot;#SvgjsLinearGradient1044&quot;)" stroke-linecap="round" class="Down"></path><path d="M2432 673L2431 1000" stroke-width="8" stroke="url(&quot;#SvgjsLinearGradient1044&quot;)" stroke-linecap="round" class="Down"></path><path d="M1151 377L1150 -90" stroke-width="10" stroke="url(&quot;#SvgjsLinearGradient1044&quot;)" stroke-linecap="round" class="Down"></path><path d="M1722 584L1721 870" stroke-width="6" stroke="url(&quot;#SvgjsLinearGradient1043&quot;)" stroke-linecap="round" class="Up"></path><path d="M441 168L440 -496" stroke-width="10" stroke="url(&quot;#SvgjsLinearGradient1044&quot;)" stroke-linecap="round" class="Down"></path><path d="M1415 125L1414 -602" stroke-width="6" stroke="url(&quot;#SvgjsLinearGradient1043&quot;)" stroke-linecap="round" class="Up"></path><path d="M414 769L413 199" stroke-width="6" stroke="url(&quot;#SvgjsLinearGradient1044&quot;)" stroke-linecap="round" class="Down"></path><path d="M881 811L880 401" stroke-width="8" stroke="url(&quot;#SvgjsLinearGradient1044&quot;)" stroke-linecap="round" class="Down"></path><path d="M1363 446L1362 896" stroke-width="8" stroke="url(&quot;#SvgjsLinearGradient1044&quot;)" stroke-linecap="round" class="Down"></path><path d="M1555 70L1554 -646" stroke-width="10" stroke="url(&quot;#SvgjsLinearGradient1044&quot;)" stroke-linecap="round" class="Down"></path><path d="M2209 713L2208 285" stroke-width="8" stroke="url(&quot;#SvgjsLinearGradient1043&quot;)" stroke-linecap="round" class="Up"></path><path d="M1257 953L1256 598" stroke-width="6" stroke="url(&quot;#SvgjsLinearGradient1044&quot;)" stroke-linecap="round" class="Down"></path><path d="M1894 398L1893 657" stroke-width="8" stroke="url(&quot;#SvgjsLinearGradient1043&quot;)" stroke-linecap="round" class="Up"></path><path d="M1768 619L1767 -52" stroke-width="6" stroke="url(&quot;#SvgjsLinearGradient1043&quot;)" stroke-linecap="round" class="Up"></path><path d="M164 138L163 -503" stroke-width="6" stroke="url(&quot;#SvgjsLinearGradient1043&quot;)" stroke-linecap="round" class="Up"></path><path d="M1679 338L1678 -115" stroke-width="6" stroke="url(&quot;#SvgjsLinearGradient1044&quot;)" stroke-linecap="round" class="Down"></path><path d="M2414 603L2413 1133" stroke-width="6" stroke="url(&quot;#SvgjsLinearGradient1043&quot;)" stroke-linecap="round" class="Up"></path><path d="M1573 795L1572 109" stroke-width="8" stroke="url(&quot;#SvgjsLinearGradient1044&quot;)" stroke-linecap="round" class="Down"></path><path d="M2129 636L2128 1127" stroke-width="10" stroke="url(&quot;#SvgjsLinearGradient1044&quot;)" stroke-linecap="round" class="Down"></path><path d="M1881 225L1880 609" stroke-width="10" stroke="url(&quot;#SvgjsLinearGradient1044&quot;)" stroke-linecap="round" class="Down"></path><path d="M1422 410L1421 -310" stroke-width="10" stroke="url(&quot;#SvgjsLinearGradient1043&quot;)" stroke-linecap="round" class="Up"></path><path d="M2737 263L2736 -284" stroke-width="6" stroke="url(&quot;#SvgjsLinearGradient1043&quot;)" stroke-linecap="round" class="Up"></path><path d="M2541 574L2540 931" stroke-width="6" stroke="url(&quot;#SvgjsLinearGradient1044&quot;)" stroke-linecap="round" class="Down"></path></g><defs><mask id="SvgjsMask1041"><rect width="3000" height="1000" fill="#ffffff"></rect></mask><linearGradient x1="16.67%" y1="-50%" x2="83.33%" y2="150%" gradientUnits="userSpaceOnUse" id="SvgjsLinearGradient1042"><stop stop-color="#0e2a47" offset="0"></stop><stop stop-color="#00459e" offset="1"></stop></linearGradient><linearGradient x1="0%" y1="100%" x2="0%" y2="0%" id="SvgjsLinearGradient1043"><stop stop-color="rgba(28, 83, 142, 0)" offset="0"></stop><stop stop-color="#1c538e" offset="1"></stop></linearGradient><linearGradient x1="0%" y1="0%" x2="0%" y2="100%" id="SvgjsLinearGradient1044"><stop stop-color="rgba(28, 83, 142, 0)" offset="0"></stop><stop stop-color="#1c538e" offset="1"></stop></linearGradient></defs></svg>