<svg xmlns="http://www.w3.org/2000/svg" version="1.1" xmlns:xlink="http://www.w3.org/1999/xlink" xmlns:svgjs="http://svgjs.dev/svgjs" width="3000" height="1000" preserveAspectRatio="none" viewBox="0 0 3000 1000"><g mask="url(&quot;#SvgjsMask1045&quot;)" fill="none"><rect width="3000" height="1000" x="0" y="0" fill="url(&quot;#SvgjsLinearGradient1046&quot;)"></rect><path d="M 0,421 C 120,355 360,103.4 600,91 C 840,78.6 960,339 1200,359 C 1440,379 1560,169.4 1800,191 C 2040,212.6 2160,493.6 2400,467 C 2640,440.4 2880,139.8 3000,58L3000 1000L0 1000z" fill="#184a7e"></path><path d="M 0,563 C 200,648.6 600,971.4 1000,991 C 1400,1010.6 1600,675.6 2000,661 C 2400,646.4 2800,866.6 3000,918L3000 1000L0 1000z" fill="#2264ab"></path></g><defs><mask id="SvgjsMask1045"><rect width="3000" height="1000" fill="#ffffff"></rect></mask><linearGradient x1="16.67%" y1="-50%" x2="83.33%" y2="150%" gradientUnits="userSpaceOnUse" id="SvgjsLinearGradient1046"><stop stop-color="#0e2a47" offset="0"></stop><stop stop-color="#00459e" offset="1"></stop></linearGradient></defs></svg>